<?xml version="1.0" encoding="UTF-8" standalone="no"?>
<!DOCTYPE svg PUBLIC "-//W3C//DTD SVG 1.1//EN" "http://www.w3.org/Graphics/SVG/1.1/DTD/svg11.dtd">
<svg width="100%" height="100%" viewBox="0 0 300 300" version="1.1" xmlns="http://www.w3.org/2000/svg" xmlns:xlink="http://www.w3.org/1999/xlink" xml:space="preserve" xmlns:serif="http://www.serif.com/" style="fill-rule:evenodd;clip-rule:evenodd;stroke-linejoin:round;stroke-miterlimit:2;">
    <g>
        <path d="M33.539,146.933L66.876,93.018C68.001,91.2 67.887,88.864 66.592,87.164L59.978,78.476C59.316,77.607 58.284,77.096 57.192,77.096C56.004,77.096 54.894,77.7 54.25,78.698L11.391,145.09C9.67,147.756 9.67,151.198 11.391,153.864L54.25,220.256C54.894,221.254 56.004,221.859 57.192,221.859C58.284,221.859 59.316,221.347 59.978,220.478L66.592,211.791C67.887,210.09 68.001,207.754 66.876,205.936L33.539,152.022C32.576,150.465 32.576,148.49 33.539,146.933Z" style="fill:rgb(205,204,204);fill-rule:nonzero;"/>
        <path d="M266.657,146.933L233.32,93.018C232.195,91.2 232.309,88.864 233.604,87.164L240.218,78.476C240.88,77.607 241.912,77.096 243.004,77.096C244.192,77.096 245.302,77.7 245.946,78.698L288.805,145.09C290.526,147.756 290.526,151.198 288.805,153.864L245.946,220.256C245.302,221.254 244.192,221.859 243.004,221.859C241.912,221.859 240.88,221.347 240.218,220.478L233.604,211.791C232.309,210.09 232.195,207.754 233.32,205.936L266.657,152.022C267.62,150.465 267.62,148.49 266.657,146.933Z" style="fill:rgb(205,204,204);fill-rule:nonzero;"/>
        <g id="g20" transform="matrix(5.00476,-1.20467e-31,-1.20467e-31,-5.00476,37.4908,262.084)">
            <g id="g22">
                <g id="g24">
                    <path id="path26" d="M9.347,6.027L9.347,38.973C9.347,39.816 10.031,40.5 10.874,40.5L24.223,40.5L35.653,29.07L35.653,6.027C35.653,5.184 34.969,4.5 34.126,4.5L10.874,4.5C10.031,4.5 9.347,5.184 9.347,6.027Z" style="fill:rgb(205,204,204);"/>
                </g>
            </g>
            <g id="g28">
                <g id="g30">
                    <path id="path32" d="M24.223,40.5L35.653,29.07L25.75,29.07C24.907,29.07 24.223,29.754 24.223,30.597L24.223,40.5Z" style="fill:rgb(230,230,230);"/>
                </g>
            </g>
            <g id="g34">
                <g id="g36">
                    <path id="path38" d="M15.603,11.116L17.176,8.662L16.239,8.662L14.803,11.034L14.21,11.034L14.21,8.662L13.438,8.662L13.438,14.176L14.995,14.176C15.554,14.176 15.996,14.048 16.321,13.793C16.678,13.504 16.856,13.116 16.856,12.627C16.856,12.184 16.732,11.838 16.485,11.589C16.238,11.339 15.944,11.181 15.603,11.116ZM16.056,12.611C16.056,12.936 15.939,13.181 15.705,13.345C15.523,13.477 15.214,13.543 14.78,13.543L14.21,13.543L14.21,11.674L14.78,11.674C15.217,11.674 15.525,11.738 15.705,11.866C15.939,12.042 16.056,12.291 16.056,12.611Z" style="fill:rgb(230,230,230);fill-rule:nonzero;"/>
                </g>
            </g>
            <g id="g40">
                <g id="g42">
                    <path id="path44" d="M21.039,9.318L21.039,8.662L17.75,8.662L17.75,14.176L20.977,14.176L20.977,13.528L18.522,13.528L18.522,11.881L20.84,11.881L20.84,11.233L18.522,11.233L18.522,9.318L21.039,9.318Z" style="fill:rgb(230,230,230);fill-rule:nonzero;"/>
                </g>
            </g>
            <g id="g46">
                <g id="g48">
                    <path id="path50" d="M25.363,10.195C25.363,9.712 25.171,9.312 24.786,8.998C24.434,8.709 23.984,8.564 23.435,8.564C23.212,8.564 23,8.596 22.801,8.658C22.602,8.72 22.426,8.809 22.271,8.923C22.116,9.038 21.998,9.133 21.918,9.21C21.837,9.287 21.75,9.381 21.656,9.493L22.109,10.012C22.267,9.799 22.471,9.614 22.719,9.456C22.968,9.299 23.231,9.22 23.51,9.22C23.819,9.22 24.076,9.304 24.28,9.472C24.484,9.64 24.587,9.865 24.587,10.149C24.587,10.281 24.557,10.401 24.499,10.508C24.44,10.614 24.351,10.706 24.232,10.783C24.112,10.86 24.023,10.913 23.964,10.943C23.906,10.973 23.815,11.011 23.693,11.058C23.261,11.23 22.969,11.353 22.815,11.429C22.591,11.53 22.407,11.66 22.261,11.819C22.022,12.068 21.902,12.388 21.902,12.779C21.902,13.205 22.07,13.559 22.405,13.84C22.73,14.111 23.155,14.247 23.677,14.25C24.278,14.25 24.805,14.012 25.258,13.536L24.852,13.009C24.48,13.404 24.075,13.602 23.638,13.602C23.355,13.602 23.124,13.535 22.946,13.401C22.768,13.267 22.679,13.078 22.679,12.833C22.679,12.711 22.698,12.603 22.737,12.509C22.776,12.416 22.835,12.336 22.913,12.269C22.991,12.203 23.064,12.151 23.133,12.113C23.202,12.076 23.287,12.036 23.389,11.994L24.403,11.569C24.668,11.447 24.877,11.299 25.028,11.124C25.251,10.846 25.363,10.536 25.363,10.195Z" style="fill:rgb(230,230,230);fill-rule:nonzero;"/>
                </g>
            </g>
            <g id="g52">
                <g id="g54">
                    <path id="path56" d="M28.461,11.507L30.291,8.662L29.355,8.662L27.958,11.003L26.569,8.662L25.64,8.662L27.463,11.507L25.769,14.176L26.678,14.176L27.958,12.026L29.246,14.176L30.155,14.176L28.461,11.507Z" style="fill:rgb(230,230,230);fill-rule:nonzero;"/>
                </g>
            </g>
        </g>
    </g>
</svg>
